<svg width="66" height="57" viewBox="0 0 66 57" fill="none" xmlns="http://www.w3.org/2000/svg">
<path d="M46.0492 27.7659C46.8187 29.5682 47.2153 31.507 47.2153 33.4659C47.2153 35.4249 46.8187 37.3637 46.0492 39.1659C45.3145 40.896 44.2547 42.4697 42.9269 43.8019C41.5988 45.1352 40.0202 46.1941 38.2815 46.9179C36.4751 47.6837 34.5326 48.0784 32.57 48.0784C30.6074 48.0784 28.6649 47.6837 26.8585 46.9179C25.1221 46.1968 23.5472 45.1375 22.2258 43.8019C19.7726 41.4197 18.2354 38.2535 17.8825 34.8557C17.5297 31.4579 18.3835 28.0444 20.2951 25.2107C22.2067 22.3771 25.0545 20.3033 28.3418 19.3512C31.629 18.3991 35.1469 18.6292 38.2815 20.0013C41.7913 21.4722 44.5811 24.2609 46.0492 27.7659ZM46.5442 33.4406C46.5487 30.7092 45.7487 28.0366 44.2435 25.7553C42.7383 23.474 40.5945 21.6845 38.0785 20.6093C36.3601 19.8906 34.5156 19.5204 32.6525 19.5204C30.7894 19.5204 28.9449 19.8906 27.2265 20.6093C23.8743 22.013 21.2081 24.6738 19.8015 28.0193C19.0755 29.7348 18.7014 31.5783 18.7014 33.4406C18.7014 35.3029 19.0755 37.1464 19.8015 38.8619C21.2188 42.1973 23.882 44.8506 27.2265 46.2593C28.9427 46.9864 30.7881 47.3611 32.6525 47.3611C34.5169 47.3611 36.3049 46.9864 38.021 46.2593C41.3656 44.8506 44.0288 42.1973 45.446 38.8619C46.1518 37.1422 46.5631 35.2989 46.5442 33.4406Z" fill="url(#paint0_linear_1397_47)"/>
<path d="M45.4378 28.0188C46.1664 29.7316 46.5418 31.5732 46.5418 33.4338C46.5418 35.2945 46.1664 37.1361 45.4378 38.8488C44.7424 40.5064 43.7292 42.0124 42.4551 43.2822C41.1988 44.5468 39.7127 45.5613 38.0763 46.2715C36.3579 46.9902 34.5134 47.3603 32.6503 47.3603C30.7872 47.3603 28.9427 46.9902 27.2243 46.2715C25.5653 45.5684 24.0572 44.5535 22.782 43.2822C21.5079 42.0124 20.4947 40.5064 19.7993 38.8488C19.0708 37.1361 18.6953 35.2945 18.6953 33.4338C18.6953 31.5732 19.0708 29.7316 19.7993 28.0188C20.4947 26.3613 21.5079 24.8553 22.782 23.5855C25.4052 20.9786 28.9547 19.5125 32.6567 19.5068C34.519 19.5077 36.3621 19.8825 38.0763 20.6088C39.7346 21.3076 41.2427 22.3182 42.5186 23.5855C43.7699 24.8609 44.7613 26.3665 45.4378 28.0188ZM46.1867 33.4402C46.1882 31.6249 45.8212 29.8281 45.1078 28.1582C43.7373 24.8985 41.1395 22.3059 37.8732 20.9382C35.3815 19.891 32.6339 19.6076 29.9802 20.1242C27.3266 20.6408 24.8871 21.9339 22.9724 23.8388C21.7349 25.0792 20.7481 26.5456 20.0659 28.1582C19.3537 29.8284 18.9866 31.625 18.9866 33.4402C18.9866 35.2554 19.3537 37.0519 20.0659 38.7222C21.2948 41.5966 23.4796 43.9601 26.2517 45.4138C29.0238 46.8674 32.2135 47.3223 35.2826 46.7017C38.3517 46.0811 41.1124 44.4229 43.0989 42.007C45.0853 39.5911 46.1759 36.5653 46.1867 33.4402Z" fill="#B6874D"/>
<path d="M32.5835 35.4927C33.7191 35.4927 34.6397 34.574 34.6397 33.4407C34.6397 32.3074 33.7191 31.3887 32.5835 31.3887C31.4479 31.3887 30.5273 32.3074 30.5273 33.4407C30.5273 34.574 31.4479 35.4927 32.5835 35.4927Z" fill="#FFFBED"/>
<path d="M42.2034 43.0285L34.9688 35.8085L37.1264 35.3525L42.2034 43.0285Z" fill="url(#paint1_linear_1397_47)"/>
<path d="M37.1264 35.3525L42.2034 43.0285L34.9688 35.8085" fill="url(#paint2_linear_1397_47)"/>
<path d="M34.5117 37.9629L42.2033 43.0296L34.9686 35.8096" fill="#F6ED89"/>
<path d="M22.9688 43.0422L30.2034 35.8096L30.6603 37.9756L22.9688 43.0422Z" fill="url(#paint3_linear_1397_47)"/>
<path d="M30.6603 37.9756L22.9688 43.0422L30.2034 35.8096" fill="url(#paint4_linear_1397_47)"/>
<path d="M28.0457 35.3525L22.9688 43.0412L30.2034 35.8085" fill="#F6ED89"/>
<path d="M22.9844 23.8389L30.2063 31.0715L28.0486 31.5275L22.9844 23.8389Z" fill="url(#paint5_linear_1397_47)"/>
<path d="M28.0486 31.5275L22.9844 23.8389L30.2063 31.0715" fill="url(#paint6_linear_1397_47)"/>
<path d="M30.6759 28.9182L22.9844 23.8389L30.2063 31.0715" fill="#F6ED89"/>
<path d="M42.1749 23.8271L34.9657 31.0725L34.4961 28.9191L42.1749 23.8271Z" fill="url(#paint7_linear_1397_47)"/>
<path d="M34.4961 28.9191L42.1749 23.8271L34.9657 31.0725" fill="url(#paint8_linear_1397_47)"/>
<path d="M37.1264 31.5285L42.178 23.8271L34.9688 31.0725" fill="#F6ED89"/>
<path d="M32.5805 19.9749V31.3749C32.3093 31.369 32.0398 31.4189 31.7887 31.5213C31.5377 31.6237 31.3103 31.7765 31.1209 31.9702L30.207 31.0582L32.5805 19.9749Z" fill="url(#paint9_linear_1397_47)"/>
<path d="M32.582 19.9749V31.3749C33.1282 31.3733 33.6529 31.5873 34.0416 31.9702L34.9555 31.0582L32.582 19.9749Z" fill="#F6ED89"/>
<path d="M32.5938 47.0058V35.4918C33.1441 35.4954 33.6734 35.2814 34.0661 34.8965L34.9672 35.8085L32.5938 47.0058Z" fill="url(#paint10_linear_1397_47)"/>
<path d="M32.5922 47.0058V35.4918C32.046 35.4934 31.5213 35.2794 31.1326 34.8965L30.2188 35.8085L32.5922 47.0058Z" fill="#F6ED89"/>
<path d="M46.1895 33.4403H34.6522C34.6549 33.1689 34.6023 32.8999 34.4976 32.6495C34.3928 32.3991 34.2382 32.1478 34.043 31.9589L34.9568 31.0469L46.1895 33.4403Z" fill="url(#paint11_linear_1397_47)"/>
<path d="M46.1895 33.4404H34.6522C34.6491 33.9871 34.4302 34.5105 34.043 34.8971L34.9568 35.8091L46.1895 33.4404Z" fill="#F6ED89"/>
<path d="M19.0391 33.4404H30.5764C30.5735 33.7107 30.6247 33.9787 30.7272 34.2289C30.8296 34.4791 30.9812 34.7062 31.1729 34.8971L30.2591 35.8091L19.0391 33.4404Z" fill="url(#paint12_linear_1397_47)"/>
<path d="M19.0391 33.44H30.5764C30.5814 32.8962 30.7949 32.3749 31.1729 31.9833L30.2591 31.0713L19.0391 33.44Z" fill="#F6ED89"/>
<path d="M32.5806 2.29297L63.1818 55.189H1.99219L32.5806 2.29297ZM62.5726 54.8343L32.5806 3.0023L2.60142 54.8343H62.5726Z" fill="#B6874D"/>
<path d="M0 56.3287L32.5938 0V2.29267L1.98 55.1887L0 56.3287Z" fill="url(#paint13_linear_1397_47)"/>
<path d="M0 56.3295H65.175L63.1823 55.1895H1.98L0 56.3295Z" fill="url(#paint14_linear_1397_47)"/>
<path d="M65.1749 56.3287L32.5938 0V2.29267L63.1822 55.1887L65.1749 56.3287Z" fill="url(#paint15_linear_1397_47)"/>
<path d="M48.0903 32.0078L60.7065 53.8325H57.1145C56.0281 53.7976 54.948 53.6533 53.8907 53.4018C51.939 52.8831 50.043 52.1746 48.2299 51.2865C45.9148 50.2511 43.3455 49.9188 40.8424 50.331C38.3393 50.7432 36.0132 51.8817 34.1542 53.6045L33.5703 53.0598C35.3736 51.125 37.7381 49.8015 40.3327 49.2745C42.9272 48.7476 45.6219 49.0436 48.0395 50.1211C49.9803 51.0749 52.0075 51.8426 54.0938 52.4138C55.0232 52.6353 55.9703 52.7752 56.9242 52.8318H58.9549L48.0903 33.9965V32.0078Z" fill="url(#paint16_linear_1397_47)"/>
<path d="M33.598 53.0615L34.1819 53.6062C34.0296 53.7455 33.8646 53.8975 33.7122 54.0622H31.4657C31.3134 53.8975 31.1484 53.7455 30.9961 53.6062L31.5799 53.0615H33.598Z" fill="url(#paint17_linear_1397_47)"/>
<path d="M31.5766 53.0618L30.9927 53.6064C29.1337 51.8837 26.8076 50.7452 24.3045 50.333C21.8014 49.9208 19.2321 50.2531 16.917 51.2884C15.1202 52.1735 13.2413 52.882 11.307 53.4038C10.2496 53.6553 9.16953 53.7995 8.08313 53.8344H4.45312L17.1454 32.0098V33.9984L6.19197 52.8718H8.22274C9.17662 52.8151 10.1237 52.6753 11.0531 52.4538C13.1394 51.8825 15.1666 51.1149 17.1074 50.1611C19.5249 49.0836 22.2197 48.7875 24.8142 49.3145C27.4088 49.8414 29.7733 51.165 31.5766 53.0998V53.0618Z" fill="url(#paint18_linear_1397_47)"/>
<path d="M22.4762 49.8301C25.0147 49.8301 29.7362 51.2741 31.4624 54.0607C29.6151 52.1662 27.2291 50.884 24.6274 50.3879C22.0257 49.8917 19.334 50.2055 16.917 51.2867C15.1202 52.1718 13.2413 52.8803 11.307 53.4021C10.2496 53.6536 9.16953 53.7979 8.08312 53.8327H4.45312C6.02001 53.8305 7.58487 53.7204 9.13659 53.5034C11.3993 53.1306 13.6019 52.4575 15.6858 51.5021C18.0085 50.5521 18.8589 49.8301 22.4762 49.8301Z" fill="#B6874D"/>
<path d="M42.6971 49.8301C40.1586 49.8301 35.4371 51.2741 33.7109 54.0607C35.5562 52.1715 37.9377 50.8926 40.5341 50.3965C43.1306 49.9005 45.817 50.2112 48.2309 51.2867C50.0277 52.1718 51.9066 52.8803 53.8409 53.4021C54.8983 53.6536 55.9784 53.7979 57.0648 53.8327H60.6948C59.1279 53.8305 57.563 53.7204 56.0113 53.5034C53.7616 53.1273 51.5721 52.4543 49.5002 51.5021C47.1648 50.5521 46.3144 49.8301 42.6971 49.8301Z" fill="#B6874D"/>
<path d="M47.9026 35.7207L57.1172 51.668H56.5333C56.104 51.6696 55.6766 51.6099 55.2641 51.4907C53.3541 50.8791 51.5056 50.0903 49.743 49.1347C46.8799 47.8757 43.699 47.5224 40.6286 48.1226C37.5582 48.7227 34.7459 50.2474 32.5703 52.4914L32.3672 52.2887L32.5703 52.0734C34.831 49.4851 37.9031 47.737 41.2865 47.1137C44.6698 46.4904 48.1649 47.0286 51.2026 48.6407C52.5005 49.2943 53.8403 49.8613 55.2133 50.338L47.598 37.1774L47.9026 35.7207Z" fill="url(#paint19_linear_1397_47)"/>
<path d="M32.5674 52.0733L32.3644 52.2887C30.1773 50.1106 27.3805 48.6447 24.3423 48.0839C21.3041 47.5232 18.1669 47.8939 15.344 49.1473C13.5854 50.0988 11.7411 50.8834 9.83551 51.4907C9.42132 51.6 8.9947 51.6554 8.56627 51.6553H8.00781L17.2224 35.708L17.527 37.19L9.91166 50.338C11.2976 49.8628 12.6503 49.2958 13.9605 48.6407C16.9996 47.0253 20.4974 46.4853 23.8835 47.1087C27.2695 47.7321 30.3441 49.4821 32.6055 52.0733H32.5674Z" fill="url(#paint20_linear_1397_47)"/>
<path d="M32.5831 52.4907L32.38 52.2881C30.19 50.1104 27.391 48.645 24.351 48.0843C21.311 47.5237 18.1721 47.894 15.3469 49.1467C13.5909 50.1035 11.7461 50.8883 9.83844 51.4901C9.42617 51.6101 8.99865 51.6698 8.56921 51.6674H8.02344C8.62983 51.6362 9.23047 51.5342 9.81305 51.3634C11.7634 50.6182 13.6628 49.7465 15.4992 48.7541C17.4836 47.7273 19.7206 47.2878 21.9469 47.4874C23.9715 47.5343 25.9638 48.0037 27.7957 48.8654C29.6275 49.7271 31.2583 50.9621 32.5831 52.4907Z" fill="#B6874D"/>
<path d="M32.582 52.4782L32.7851 52.2628C34.9755 50.0899 37.7728 48.6284 40.8102 48.0701C43.8476 47.5118 46.9831 47.8827 49.8055 49.1342C51.5696 50.0835 53.4178 50.8679 55.3266 51.4775C55.7394 51.5953 56.1666 51.655 56.5959 51.6548H57.1163C56.5105 51.6184 55.9104 51.5165 55.3266 51.3508C53.3775 50.6028 51.4783 49.7313 49.6405 48.7415C47.6571 47.712 45.4192 47.2724 43.1928 47.4748C41.1728 47.5268 39.1859 47.9986 37.3589 48.8601C35.5318 49.7216 33.9049 50.9538 32.582 52.4782Z" fill="#B6874D"/>
<path d="M32.5823 35.505C33.7249 35.505 34.6714 34.5806 34.6714 33.4403C34.6714 32.3 33.7249 31.3379 32.5823 31.3379C31.4397 31.3379 30.4883 32.3 30.4883 33.4403C30.4883 34.5806 31.4397 35.505 32.5823 35.505Z" fill="url(#paint21_radial_1397_47)"/>
<path d="M32.5816 35.2642C32.2201 35.2642 31.8667 35.1572 31.5662 34.9568C31.2656 34.7564 31.0314 34.4715 30.893 34.1382C30.7547 33.8049 30.7185 33.4382 30.789 33.0844C30.8595 32.7305 31.0336 32.4055 31.2892 32.1504C31.5448 31.8954 31.8705 31.7216 32.225 31.6513C32.5796 31.5809 32.9471 31.617 33.281 31.7551C33.615 31.8931 33.9004 32.1269 34.1013 32.4269C34.3021 32.7268 34.4093 33.0795 34.4093 33.4402C34.4093 33.924 34.2167 34.3879 33.874 34.73C33.5312 35.072 33.0663 35.2642 32.5816 35.2642ZM32.5256 31.8189C32.2073 31.8313 31.8997 31.9368 31.641 32.1224C31.3823 32.3079 31.184 32.5652 31.0707 32.8624C30.9574 33.1595 30.9341 33.4833 31.0038 33.7936C31.0735 34.1038 31.233 34.3867 31.4625 34.6072C31.692 34.8276 31.9815 34.9759 32.2948 35.0335C32.608 35.0911 32.9314 35.0555 33.2246 34.9311C33.5177 34.8068 33.7678 34.5991 33.9437 34.334C34.1196 34.069 34.2135 33.7581 34.2137 33.4402C34.2139 33.2219 34.1698 33.0057 34.0842 32.8048C33.9987 32.6038 33.8733 32.4222 33.7156 32.2708C33.558 32.1194 33.3713 32.0013 33.1668 31.9236C32.9623 31.846 32.7442 31.8103 32.5256 31.8189Z" fill="#B6874D"/>
<defs>
<linearGradient id="paint0_linear_1397_47" x1="17.9739" y1="33.4406" x2="47.2042" y2="33.4406" gradientUnits="userSpaceOnUse">
<stop stop-color="#CCA005"/>
<stop offset="0.07" stop-color="#D8B62A"/>
<stop offset="0.16" stop-color="#E3CA4C"/>
<stop offset="0.24" stop-color="#EBD967"/>
<stop offset="0.33" stop-color="#F1E47A"/>
<stop offset="0.41" stop-color="#F5EB85"/>
<stop offset="0.51" stop-color="#F6ED89"/>
<stop offset="1" stop-color="#CCA005"/>
</linearGradient>
<linearGradient id="paint1_linear_1397_47" x1="40.4943" y1="43.5785" x2="43.0709" y2="47.9547" gradientUnits="userSpaceOnUse">
<stop stop-color="#D5AA02"/>
<stop offset="0.23" stop-color="#DDBC26"/>
<stop offset="0.58" stop-color="#EAD65A"/>
<stop offset="0.85" stop-color="#F1E67A"/>
<stop offset="1" stop-color="#F4EC86"/>
</linearGradient>
<linearGradient id="paint2_linear_1397_47" x1="40.4943" y1="43.5785" x2="45.3388" y2="51.8359" gradientUnits="userSpaceOnUse">
<stop stop-color="#CCA005"/>
<stop offset="0.23" stop-color="#D8B529"/>
<stop offset="0.58" stop-color="#E8D35D"/>
<stop offset="0.85" stop-color="#F2E67D"/>
<stop offset="1" stop-color="#F6ED89"/>
</linearGradient>
<linearGradient id="paint3_linear_1397_47" x1="28.5737" y1="38.1338" x2="24.1757" y2="40.7197" gradientUnits="userSpaceOnUse">
<stop stop-color="#D5AA02"/>
<stop offset="0.23" stop-color="#DDBC26"/>
<stop offset="0.58" stop-color="#EAD65A"/>
<stop offset="0.85" stop-color="#F1E67A"/>
<stop offset="1" stop-color="#F4EC86"/>
</linearGradient>
<linearGradient id="paint4_linear_1397_47" x1="28.5737" y1="38.1338" x2="20.285" y2="43.0011" gradientUnits="userSpaceOnUse">
<stop stop-color="#CCA005"/>
<stop offset="0.23" stop-color="#D8B529"/>
<stop offset="0.58" stop-color="#E8D35D"/>
<stop offset="0.85" stop-color="#F2E67D"/>
<stop offset="1" stop-color="#F6ED89"/>
</linearGradient>
<linearGradient id="paint5_linear_1397_47" x1="27.9993" y1="29.7872" x2="25.4412" y2="25.3989" gradientUnits="userSpaceOnUse">
<stop stop-color="#D5AA02"/>
<stop offset="0.23" stop-color="#DDBC26"/>
<stop offset="0.58" stop-color="#EAD65A"/>
<stop offset="0.85" stop-color="#F1E67A"/>
<stop offset="1" stop-color="#F4EC86"/>
</linearGradient>
<linearGradient id="paint6_linear_1397_47" x1="27.9993" y1="29.7872" x2="23.1686" y2="21.4957" gradientUnits="userSpaceOnUse">
<stop stop-color="#CCA005"/>
<stop offset="0.23" stop-color="#D8B529"/>
<stop offset="0.58" stop-color="#E8D35D"/>
<stop offset="0.85" stop-color="#F2E67D"/>
<stop offset="1" stop-color="#F6ED89"/>
</linearGradient>
<linearGradient id="paint7_linear_1397_47" x1="36.527" y1="28.0498" x2="40.903" y2="25.4607" gradientUnits="userSpaceOnUse">
<stop stop-color="#D5AA02"/>
<stop offset="0.23" stop-color="#DDBC26"/>
<stop offset="0.58" stop-color="#EAD65A"/>
<stop offset="0.85" stop-color="#F1E67A"/>
<stop offset="1" stop-color="#F4EC86"/>
</linearGradient>
<linearGradient id="paint8_linear_1397_47" x1="36.527" y1="28.0498" x2="44.7892" y2="23.1719" gradientUnits="userSpaceOnUse">
<stop stop-color="#CCA005"/>
<stop offset="0.23" stop-color="#D8B529"/>
<stop offset="0.58" stop-color="#E8D35D"/>
<stop offset="0.85" stop-color="#F2E67D"/>
<stop offset="1" stop-color="#F6ED89"/>
</linearGradient>
<linearGradient id="paint9_linear_1397_47" x1="32.0601" y1="26.9035" x2="29.7201" y2="32.6195" gradientUnits="userSpaceOnUse">
<stop stop-color="#CCA005"/>
<stop offset="0.14" stop-color="#CFA60F"/>
<stop offset="0.38" stop-color="#D8B62B"/>
<stop offset="0.69" stop-color="#E6D057"/>
<stop offset="1" stop-color="#F6ED89"/>
</linearGradient>
<linearGradient id="paint10_linear_1397_47" x1="33.3012" y1="39.7607" x2="35.6548" y2="34.0451" gradientUnits="userSpaceOnUse">
<stop stop-color="#CCA005"/>
<stop offset="0.14" stop-color="#CFA60F"/>
<stop offset="0.38" stop-color="#D8B62B"/>
<stop offset="0.69" stop-color="#E6D057"/>
<stop offset="1" stop-color="#F6ED89"/>
</linearGradient>
<linearGradient id="paint11_linear_1397_47" x1="39.0679" y1="33.0812" x2="33.3474" y2="30.716" gradientUnits="userSpaceOnUse">
<stop stop-color="#D5AA02"/>
<stop offset="0.14" stop-color="#D7AF0C"/>
<stop offset="0.38" stop-color="#DEBD28"/>
<stop offset="0.68" stop-color="#E9D354"/>
<stop offset="1" stop-color="#F6ED89"/>
</linearGradient>
<linearGradient id="paint12_linear_1397_47" x1="25.7383" y1="33.9715" x2="31.4571" y2="36.3407" gradientUnits="userSpaceOnUse">
<stop stop-color="#CCA005"/>
<stop offset="0.14" stop-color="#CFA60F"/>
<stop offset="0.38" stop-color="#D8B62B"/>
<stop offset="0.69" stop-color="#E6D057"/>
<stop offset="1" stop-color="#F6ED89"/>
</linearGradient>
<linearGradient id="paint13_linear_1397_47" x1="33.1914" y1="0.408814" x2="0.673151" y2="56.7779" gradientUnits="userSpaceOnUse">
<stop stop-color="#CCA005"/>
<stop offset="0.07" stop-color="#D8B62A"/>
<stop offset="0.16" stop-color="#E3CA4C"/>
<stop offset="0.24" stop-color="#EBD967"/>
<stop offset="0.33" stop-color="#F1E47A"/>
<stop offset="0.41" stop-color="#F5EB85"/>
<stop offset="0.51" stop-color="#F6ED89"/>
<stop offset="1" stop-color="#CCA005"/>
</linearGradient>
<linearGradient id="paint14_linear_1397_47" x1="65.3588" y1="59.3487" x2="0.196583" y2="60.6546" gradientUnits="userSpaceOnUse">
<stop stop-color="#CCA005"/>
<stop offset="0.07" stop-color="#D8B62A"/>
<stop offset="0.16" stop-color="#E3CA4C"/>
<stop offset="0.24" stop-color="#EBD967"/>
<stop offset="0.33" stop-color="#F1E47A"/>
<stop offset="0.41" stop-color="#F5EB85"/>
<stop offset="0.51" stop-color="#F6ED89"/>
<stop offset="1" stop-color="#CCA005"/>
</linearGradient>
<linearGradient id="paint15_linear_1397_47" x1="37.8155" y1="-5.9394" x2="70.304" y2="50.7051" gradientUnits="userSpaceOnUse">
<stop stop-color="#CCA005"/>
<stop offset="0.07" stop-color="#D8B62A"/>
<stop offset="0.16" stop-color="#E3CA4C"/>
<stop offset="0.24" stop-color="#EBD967"/>
<stop offset="0.33" stop-color="#F1E47A"/>
<stop offset="0.41" stop-color="#F5EB85"/>
<stop offset="0.51" stop-color="#F6ED89"/>
<stop offset="1" stop-color="#CCA005"/>
</linearGradient>
<linearGradient id="paint16_linear_1397_47" x1="33.5957" y1="42.9138" x2="60.7065" y2="42.9138" gradientUnits="userSpaceOnUse">
<stop stop-color="#CCA005"/>
<stop offset="0.07" stop-color="#D8B62A"/>
<stop offset="0.16" stop-color="#E3CA4C"/>
<stop offset="0.24" stop-color="#EBD967"/>
<stop offset="0.33" stop-color="#F1E47A"/>
<stop offset="0.41" stop-color="#F5EB85"/>
<stop offset="0.51" stop-color="#F6ED89"/>
<stop offset="1" stop-color="#CCA005"/>
</linearGradient>
<linearGradient id="paint17_linear_1397_47" x1="30.9961" y1="53.5555" x2="34.1819" y2="53.5555" gradientUnits="userSpaceOnUse">
<stop stop-color="#CCA005"/>
<stop offset="0.07" stop-color="#D8B62A"/>
<stop offset="0.16" stop-color="#E3CA4C"/>
<stop offset="0.24" stop-color="#EBD967"/>
<stop offset="0.33" stop-color="#F1E47A"/>
<stop offset="0.41" stop-color="#F5EB85"/>
<stop offset="0.51" stop-color="#F6ED89"/>
<stop offset="1" stop-color="#CCA005"/>
</linearGradient>
<linearGradient id="paint18_linear_1397_47" x1="4.45312" y1="42.9158" x2="31.5766" y2="42.9158" gradientUnits="userSpaceOnUse">
<stop stop-color="#CCA005"/>
<stop offset="0.07" stop-color="#D8B62A"/>
<stop offset="0.16" stop-color="#E3CA4C"/>
<stop offset="0.24" stop-color="#EBD967"/>
<stop offset="0.33" stop-color="#F1E47A"/>
<stop offset="0.41" stop-color="#F5EB85"/>
<stop offset="0.51" stop-color="#F6ED89"/>
<stop offset="1" stop-color="#CCA005"/>
</linearGradient>
<linearGradient id="paint19_linear_1397_47" x1="32.3672" y1="44.106" x2="57.1299" y2="44.106" gradientUnits="userSpaceOnUse">
<stop stop-color="#CCA005"/>
<stop offset="0.07" stop-color="#D8B62A"/>
<stop offset="0.16" stop-color="#E3CA4C"/>
<stop offset="0.24" stop-color="#EBD967"/>
<stop offset="0.33" stop-color="#F1E47A"/>
<stop offset="0.41" stop-color="#F5EB85"/>
<stop offset="0.51" stop-color="#F6ED89"/>
<stop offset="1" stop-color="#CCA005"/>
</linearGradient>
<linearGradient id="paint20_linear_1397_47" x1="8.00781" y1="44.0047" x2="32.5674" y2="44.0047" gradientUnits="userSpaceOnUse">
<stop stop-color="#CCA005"/>
<stop offset="0.07" stop-color="#D8B62A"/>
<stop offset="0.16" stop-color="#E3CA4C"/>
<stop offset="0.24" stop-color="#EBD967"/>
<stop offset="0.33" stop-color="#F1E47A"/>
<stop offset="0.41" stop-color="#F5EB85"/>
<stop offset="0.51" stop-color="#F6ED89"/>
<stop offset="1" stop-color="#CCA005"/>
</linearGradient>
<radialGradient id="paint21_radial_1397_47" cx="0" cy="0" r="1" gradientUnits="userSpaceOnUse" gradientTransform="translate(32.964 32.5673) scale(4.66061 4.6512)">
<stop stop-color="#F6ED89"/>
<stop offset="0.08" stop-color="#F4EA83"/>
<stop offset="0.18" stop-color="#EFE073"/>
<stop offset="0.3" stop-color="#E6D057"/>
<stop offset="0.43" stop-color="#DABA31"/>
<stop offset="0.56" stop-color="#CCA005"/>
<stop offset="0.62" stop-color="#CEA30A"/>
<stop offset="0.7" stop-color="#D3AC1A"/>
<stop offset="0.79" stop-color="#DBBB33"/>
<stop offset="0.89" stop-color="#E6D057"/>
<stop offset="0.99" stop-color="#F4EA84"/>
<stop offset="1" stop-color="#F6ED89"/>
</radialGradient>
</defs>
</svg>
