<svg width="56" height="54" viewBox="0 0 56 54" fill="none" xmlns="http://www.w3.org/2000/svg">
<path d="M6.72 0C6.10313 0 5.6 0.505371 5.6 1.125V41.625C5.6 42.249 6.10313 42.75 6.72 42.75C20.2256 42.75 25.5631 45.769 26.88 46.6875V5.23828C24.115 3.08936 18.165 0 6.72 0ZM49.28 0C37.835 0 31.885 3.08936 29.12 5.23828V46.6875C30.4369 45.769 35.7788 42.75 49.28 42.75C49.9012 42.75 50.4 42.249 50.4 41.625V1.125C50.4 0.505371 49.9012 0 49.28 0ZM3.185 6.75C1.42625 6.75 0 8.18262 0 9.94922V47.4258C0 49.1924 1.42625 50.625 3.185 50.625H21.805C22.6012 51.728 24.6356 54 28 54C31.3644 54 33.3988 51.728 34.195 50.625H52.815C54.5737 50.625 56 49.1968 56 47.4258V9.94922C56 8.18262 54.5737 6.75 52.815 6.75H52.64V41.625C52.64 43.4839 51.1306 45 49.28 45C36.12 45 31.2244 47.9268 30.38 48.5156L30.24 48.6562C29.4613 49.2759 29.1025 50.2734 28.035 50.2734C26.9675 50.2734 26.7881 49.3726 25.865 48.7266L25.62 48.5156C24.7756 47.9268 19.8888 45 6.72 45C4.86937 45 3.36 43.4839 3.36 41.625V6.75H3.185Z" fill="#2E3160"/>
</svg>
