<svg width="23" height="21" viewBox="0 0 23 21" fill="none" xmlns="http://www.w3.org/2000/svg">
<path d="M1.92 0V1.92H0V18.72H0.48C6.53437 18.72 10.8038 20.58 10.845 20.5987L11.04 20.685L11.235 20.5987C11.2762 20.58 15.5456 18.72 21.6 18.72H22.08V1.92H20.16V0H19.68C14.9569 0 11.3475 1.73813 11.04 1.89C10.7325 1.73813 7.12313 0 2.4 0H1.92ZM2.88 1.00313C6.83812 1.11563 9.91313 2.4225 10.56 2.715V17.5219C9.53813 17.0812 6.66563 15.9844 2.88 15.8831V1.00313ZM19.2 1.00313V15.8831C15.4144 15.9844 12.5419 17.0812 11.52 17.5219V2.715C12.1669 2.4225 15.2419 1.11563 19.2 1.00313Z" fill="#333333"/>
</svg>
