<svg width="145" height="70" viewBox="0 0 145 70" fill="none" xmlns="http://www.w3.org/2000/svg">
<path d="M28.9763 45.5686C25.4506 45.5686 21.9981 45.5686 18.5439 45.5686C18.2453 45.5686 17.9449 45.5864 17.6499 45.556C16.7649 45.4612 16.2268 44.858 16.2464 44.0096C16.2661 43.2149 16.8185 42.6476 17.6624 42.5652C17.8394 42.5473 18.02 42.5581 18.1988 42.5581C24.8427 42.5581 31.4883 42.5581 38.1322 42.5581C38.2806 42.5581 38.4308 42.5527 38.5792 42.5617C39.5303 42.6154 40.1329 43.1971 40.1311 44.0579C40.1311 44.9206 39.5303 45.5435 38.5828 45.5578C36.7948 45.5864 35.0069 45.5686 33.219 45.5703C32.865 45.5703 32.511 45.5703 32.1695 45.5703C31.5044 49.1356 35.6917 54.1811 39.6251 54.5623C40.233 51.0024 41.9655 48.1119 44.937 46.016C47.2273 44.3998 49.7876 43.7054 52.591 43.7429C57.6061 43.8074 63.6743 47.5821 64.7774 54.863C79.2648 54.863 93.7612 54.863 108.336 54.863C108.898 51.2118 110.605 48.2139 113.652 46.0482C115.91 44.4428 118.433 43.691 121.206 43.7501C127.349 43.879 131.427 47.4998 133.546 54.7252C137.763 54.7181 142.319 49.7836 141.901 45.5632C139.446 45.7457 137.161 45.3305 135.459 43.3098C134.372 42.0176 133.937 40.5177 133.939 38.8442C133.946 34.5308 135.806 32.2434 140.102 31.5024C139.544 30.4446 139.042 29.4119 138.45 28.4347C138.339 28.2521 137.872 28.2253 137.569 28.2253C130.805 28.2145 124.041 28.2074 117.278 28.2181C113.623 28.2235 111.054 26.618 109.536 23.2496C106.623 16.7866 103.645 10.354 100.729 3.89281C100.426 3.22521 100.085 2.99253 99.3484 2.99432C78.7588 3.0158 58.1711 3.01222 37.5815 3.01043C37.2239 3.01043 36.8646 3.02654 36.5088 2.99432C35.715 2.92094 35.2698 2.43948 35.1518 1.68239C35.0373 0.944991 35.529 0.263074 36.2835 0.0894621C36.5982 0.0160798 36.9325 0.0125002 37.2579 0.0125002C58.2676 0.00534097 79.2738 -0.0125571 100.28 0.01429C107.735 0.0232391 114.34 2.45022 120.065 7.2666C124.991 11.41 129.977 15.4818 134.872 19.661C141.531 25.3455 144.96 32.5942 144.983 41.3768C144.99 43.7501 145.106 46.22 144.531 48.4806C143.197 53.7193 139.523 56.6904 134.277 57.7339C133.732 57.8413 133.483 57.9755 133.372 58.5715C132.244 64.6873 127.104 69.024 121.009 69.0455C114.864 69.0688 109.736 64.8376 108.506 58.7308C108.46 58.4981 108.402 58.2655 108.338 57.9827C93.8434 57.9827 79.3471 57.9827 64.7685 57.9827C64.663 58.4409 64.5611 58.9277 64.4395 59.4074C62.9341 65.3764 57.6955 69.2656 51.4807 69.0312C45.7004 68.8128 40.7265 64.3723 39.7074 58.5071C39.6269 58.0471 39.5536 57.6981 38.9689 57.571C33.8823 56.4721 29.4287 52.0978 29.055 46.1091C29.0443 45.9641 29.0139 45.8173 28.9763 45.5686ZM103.791 3.23953C103.85 3.46862 103.859 3.55812 103.895 3.63508C106.761 9.92268 109.615 16.2139 112.506 22.4889C113.35 24.3199 114.871 25.1933 116.872 25.1969C123.038 25.2077 129.205 25.2023 135.371 25.1987C135.588 25.1987 135.802 25.154 136.335 25.0949C135.21 24.0389 134.316 23.1243 133.342 22.301C129.657 19.1832 125.969 16.0689 122.239 13.0065C119.754 10.9679 117.295 8.87206 114.644 7.06972C111.431 4.88436 107.768 3.73173 103.791 3.23953ZM52.1798 66.0458C57.531 66.0135 61.8631 61.6751 61.8381 56.3736C61.813 51.0597 57.4219 46.6782 52.1512 46.7104C46.8089 46.7427 42.5019 51.0776 42.5215 56.4005C42.543 61.7645 46.8626 66.0798 52.1798 66.0458ZM120.934 66.0458C126.351 66.0046 130.61 61.6965 130.576 56.2949C130.542 51.0167 126.153 46.6603 120.92 46.7122C115.567 46.7659 111.243 51.0991 111.258 56.3969C111.272 61.727 115.645 66.0869 120.934 66.0458ZM141.961 42.5384C142.106 39.9503 141.84 37.509 141.268 35.091C141.15 34.5952 140.887 34.5147 140.443 34.5218C138.673 34.5451 137.216 35.7461 136.987 37.4016C136.616 40.1025 137.47 41.8905 139.399 42.4364C139.569 42.4847 139.748 42.5294 139.923 42.533C140.574 42.5456 141.225 42.5384 141.961 42.5384Z" fill="#277DA9"/>
<path d="M24.3497 20.8565C31.6783 20.8565 39.0052 20.8565 46.3338 20.8565C46.661 20.8565 46.9936 20.8386 47.3154 20.8816C48.111 20.9872 48.5186 21.5062 48.5991 22.2633C48.6778 23.0043 48.1325 23.654 47.3797 23.7829C47.1473 23.8222 46.9059 23.8258 46.6682 23.8258C31.7445 23.8276 16.8208 23.8276 1.89714 23.8258C0.699244 23.8258 0.0985071 23.3945 0.00911165 22.5049C-0.0767079 21.6566 0.450725 20.9764 1.29462 20.8744C1.58962 20.8386 1.88999 20.8565 2.18678 20.8565C9.57442 20.8565 16.9621 20.8565 24.3497 20.8565Z" fill="#277DA9"/>
<path d="M35.6941 9.65794C28.4834 9.65794 21.2728 9.65794 14.0622 9.65794C13.7636 9.65794 13.465 9.66867 13.17 9.63825C12.3601 9.55234 11.8094 8.92053 11.8291 8.12765C11.8469 7.38488 12.394 6.79424 13.1736 6.71191C13.5276 6.67432 13.8869 6.68864 14.2445 6.68864C28.6658 6.68864 43.0871 6.68864 57.5101 6.69043C57.7783 6.69043 58.0518 6.67969 58.3111 6.7316C59.0906 6.88731 59.5144 7.41709 59.5144 8.17776C59.5144 8.94022 59.087 9.46821 58.3093 9.62214C58.0501 9.67404 57.7747 9.65436 57.5083 9.65436C50.2333 9.65794 42.9637 9.65794 35.6941 9.65794Z" fill="#277DA9"/>
<path d="M32.7446 31.0962C26.6961 31.098 20.6494 31.098 14.6009 31.0962C14.3041 31.0962 13.9966 31.123 13.7105 31.0622C12.9918 30.91 12.5555 30.4608 12.5126 29.7073C12.4697 28.9663 12.7915 28.424 13.5138 28.2056C13.8464 28.1054 14.2165 28.0965 14.5705 28.0965C26.7855 28.0911 39.0005 28.0911 51.2155 28.0965C51.5087 28.0965 51.818 28.1072 52.0951 28.1931C52.8478 28.4294 53.2072 28.9824 53.1285 29.761C53.0552 30.5037 52.5975 30.9458 51.8716 31.0675C51.5516 31.1212 51.2172 31.0926 50.8901 31.0926C44.8416 31.0962 38.7931 31.0962 32.7446 31.0962Z" fill="#277DA9"/>
<path d="M22.7377 38.8198C18.1804 38.8198 13.623 38.8198 9.06382 38.8198C8.73663 38.8198 8.4023 38.8449 8.08226 38.7912C7.30094 38.6605 6.87006 38.1522 6.8486 37.379C6.82715 36.604 7.23122 36.0796 8.00538 35.8988C8.23423 35.8451 8.47918 35.8541 8.71697 35.8541C18.0409 35.8523 27.3648 35.8523 36.6888 35.8541C36.9266 35.8541 37.1715 35.8505 37.4004 35.9024C38.1799 36.0814 38.5732 36.6183 38.5482 37.388C38.5232 38.1576 38.0941 38.6695 37.3056 38.793C37.0142 38.8395 36.712 38.818 36.4134 38.818C31.8525 38.8198 27.2951 38.818 22.7377 38.8198Z" fill="#277DA9"/>
<path d="M30.7861 16.5796C26.7973 16.5796 22.8102 16.5831 18.8214 16.5778C17.8416 16.576 17.2409 16.1572 17.0657 15.3893C16.8833 14.5929 17.4411 13.7588 18.285 13.5995C18.5157 13.5566 18.7588 13.5727 18.9966 13.5727C26.8831 13.5709 34.7695 13.5709 42.656 13.5727C42.9224 13.5727 43.2013 13.553 43.4534 13.6228C44.199 13.8286 44.6245 14.3298 44.6012 15.1191C44.578 15.9084 44.1292 16.3845 43.3712 16.5455C43.1137 16.601 42.8384 16.5778 42.5702 16.5778C38.6439 16.5813 34.7141 16.5813 30.7861 16.5796Z" fill="#277DA9"/>
</svg>
