<svg width="23" height="21" viewBox="0 0 23 21" fill="none" xmlns="http://www.w3.org/2000/svg">
<path d="M22.2361 4.51446C21.6413 6.24538 21.0431 7.9763 20.4417 9.70722C20.3484 9.97862 20.2323 10.2418 20.0947 10.494C19.9617 10.7445 19.7597 10.9523 19.5122 11.0933C19.2648 11.2344 18.9821 11.3028 18.6969 11.2906H6.8007L7.11794 13.3166H18.5185C18.7184 13.3181 18.9164 13.3548 19.1034 13.4248C19.2373 13.473 19.354 13.5594 19.4386 13.6731C19.5233 13.7868 19.5722 13.9228 19.5792 14.064C19.6109 14.3616 19.5559 14.662 19.4206 14.9295C19.3657 15.036 19.2839 15.1264 19.1831 15.1919C19.0822 15.2575 18.9659 15.2958 18.8456 15.3032C18.707 15.3129 18.5679 15.3129 18.4293 15.3032H10.6769C9.40796 15.3032 8.14893 15.3032 6.87999 15.3032C6.54793 15.3229 6.21804 15.2386 5.93696 15.0621C5.65587 14.8856 5.43782 14.6259 5.31367 14.3197C5.10102 13.8501 4.95426 13.3537 4.87747 12.8445C4.58998 11.3496 4.30247 9.89407 4.02489 8.36968C3.68783 6.62564 3.35738 4.88489 3.03354 3.14741C3.03354 2.99989 2.96415 2.84253 2.94432 2.68518C2.92449 2.52782 2.89475 2.54749 2.7857 2.55732H1.34826C1.0524 2.57436 0.760404 2.48396 0.526868 2.30296C0.293332 2.12196 0.134243 1.86275 0.0793252 1.57384C0.0793252 1.44599 0.0297406 1.31816 0 1.20015V0.855923C0 0.855923 0 0.757561 0 0.718222C0.0545954 0.522959 0.16866 0.349198 0.326589 0.22069C0.484517 0.0921823 0.678615 0.0152197 0.882319 0.000302244C1.77454 0.000302244 2.67666 0.000302244 3.56888 0.000302244C3.81326 -0.00525367 4.05319 0.0659102 4.25437 0.203673C4.45554 0.341435 4.60769 0.538752 4.68911 0.767414C4.7952 1.03373 4.87167 1.31075 4.91713 1.59353C5.00636 2.13444 5.08566 2.68519 5.16497 3.25561H20.0353C20.3525 3.25561 20.6598 3.25561 21.0266 3.25561C21.3069 3.23936 21.5841 3.31953 21.8117 3.48257C22.0393 3.64562 22.2032 3.88156 22.2757 4.15058L22.2361 4.51446ZM19.7973 5.26188L5.69039 5.21272C5.69039 5.27173 5.69039 5.3209 5.69039 5.36024C5.93823 6.62892 6.18605 7.88779 6.42398 9.15648C6.42398 9.25482 6.48345 9.27449 6.57268 9.27449L18.1021 9.3335C18.1428 9.33923 18.184 9.32913 18.2173 9.30528C18.2506 9.28144 18.2733 9.24571 18.2806 9.20564C18.6672 8.22216 19.0538 7.18952 19.4305 6.17654L19.7973 5.26188Z" fill="white"/>
<path d="M16.6988 20.1515L16.4411 20.0925C16.0298 20.0081 15.6526 19.8055 15.3564 19.5099C15.0603 19.2144 14.8583 18.839 14.7756 18.4304C14.7069 18.0199 14.7648 17.5984 14.9417 17.2211C15.1186 16.8438 15.4063 16.5283 15.767 16.316C16.031 16.1485 16.3296 16.0421 16.6406 16.0045C16.9517 15.9669 17.2673 15.9991 17.5641 16.0988C17.8609 16.1984 18.1314 16.3629 18.3555 16.5802C18.5796 16.7975 18.7517 17.0619 18.8589 17.354C18.9662 17.6461 19.006 17.9584 18.9753 18.2677C18.9446 18.5771 18.8442 18.8757 18.6815 19.1414C18.5189 19.4071 18.2982 19.6332 18.0357 19.8029C17.7731 19.9727 17.4755 20.0817 17.1648 20.122C17.122 20.1165 17.0787 20.1165 17.0359 20.122L16.6988 20.1515Z" fill="white"/>
<path d="M7.45945 15.933C7.7332 15.9291 8.00501 15.9791 8.25918 16.08C8.51335 16.1809 8.74482 16.3308 8.94025 16.521C9.13567 16.7113 9.29118 16.938 9.39775 17.1882C9.50431 17.4384 9.55983 17.707 9.56112 17.9786C9.56112 18.5316 9.33968 19.0619 8.94554 19.4529C8.5514 19.8439 8.01685 20.0636 7.45945 20.0636C6.90205 20.0636 6.36747 19.8439 5.97333 19.4529C5.57919 19.0619 5.35779 18.5316 5.35779 17.9786C5.35774 17.7067 5.41234 17.4374 5.51844 17.1866C5.62453 16.9358 5.77999 16.7086 5.97569 16.5181C6.17139 16.3276 6.40338 16.1777 6.65815 16.0773C6.91292 15.9768 7.18535 15.9278 7.45945 15.933Z" fill="white"/>
</svg>
