<svg width="92" height="96" viewBox="0 0 92 96" fill="none" xmlns="http://www.w3.org/2000/svg">
<path d="M51.2879 0C51.8813 0 52.4747 0 53.0681 0C53.1127 0.0901197 53.1991 0.118282 53.2882 0.137996C53.9931 0.309786 54.6005 0.684346 55.1911 1.0927C58.6235 3.45834 62.0558 5.82399 65.491 8.18681C71.0575 12.0197 76.6267 15.8526 82.1932 19.6855C82.6306 19.9869 83.0095 20.3473 83.316 20.7867C84.4276 22.3778 84.4499 24.3182 83.3522 25.9883C82.508 27.2697 81.6416 28.537 80.7835 29.8099C80.3823 30.4041 79.9811 31.0012 79.5827 31.5954C79.5353 31.6686 79.4545 31.7447 79.4935 31.8376C79.5437 31.9531 79.6635 31.9164 79.7582 31.9193C80.0062 31.9249 80.2541 31.9193 80.4993 31.9221C82.7281 31.9474 84.6923 33.7442 84.9514 35.9803C85.0294 36.6506 84.9959 37.318 84.9987 37.9883C84.9987 38.2305 85.0656 38.4023 85.2662 38.5459C85.5476 38.7486 85.7955 38.9937 86.0268 39.2584C87.0799 40.4609 87.5563 41.8747 87.5563 43.4659C87.5563 47.4959 87.5563 51.5259 87.5563 55.556C87.5563 55.6771 87.5619 55.7954 87.5563 55.9165C87.5479 56.1305 87.6482 56.2262 87.86 56.2234C88.2361 56.2178 88.6122 56.2206 88.9883 56.2262C90.2615 56.2431 91.3676 57.0373 91.8133 58.2427C91.8579 58.3609 91.8691 58.5018 92.0056 58.5637C92.0056 63.923 92.0056 69.2823 92.0056 74.6444C91.8635 74.7177 91.8551 74.8726 91.805 74.9965C91.3481 76.1849 90.242 76.965 88.9855 76.9819C88.6094 76.9876 88.2333 76.9876 87.8572 76.9847C87.6454 76.9819 87.5451 77.0749 87.5535 77.2917C87.5563 77.4128 87.5535 77.5311 87.5535 77.6522C87.5535 81.7104 87.5535 85.7686 87.5535 89.824C87.5535 90.2042 87.5396 90.5844 87.4616 90.9561C86.935 93.4964 85.4194 95.1016 82.9594 95.8169C82.8033 95.862 82.6167 95.8423 82.5052 96.0028C56.6649 96.0028 30.8273 96.0028 4.98698 96.0028C4.91733 95.8817 4.78639 95.8845 4.67494 95.8564C2.27339 95.2312 0.766156 93.7019 0.144873 91.28C0.117013 91.1673 0.117013 91.0378 0 90.9646C0 74.7261 0 58.4849 0 42.2464C0.136515 42.1732 0.128157 42.0296 0.158803 41.9085C0.610139 40.1286 1.61589 38.7796 3.21785 37.901C3.43238 37.7827 3.5076 37.639 3.50482 37.4025C3.50482 36.9237 3.46024 36.4421 3.52989 35.9634C3.87536 33.6062 5.8005 31.9333 8.15747 31.9305C9.14651 31.9305 10.1355 31.9305 11.1246 31.9305C11.5481 31.9305 11.5787 31.9052 11.6177 31.4827C11.8963 28.6074 12.1749 25.732 12.4535 22.8566C12.8268 18.9955 13.1946 15.1345 13.5791 11.2762C13.8437 8.63178 15.8831 6.92513 18.5048 7.1617C20.572 7.34757 22.6392 7.57287 24.7037 7.78127C27.1944 8.03192 29.6823 8.27975 32.173 8.52758C34.5745 8.76977 36.9761 9.00915 39.3748 9.25417C39.7537 9.29359 40.0797 9.45412 40.3054 9.77799C40.6063 10.2089 40.701 10.6764 40.4447 11.1608C40.1689 11.6789 39.7315 11.9747 39.1436 11.938C38.4443 11.8958 37.745 11.8085 37.0457 11.7409C34.5355 11.4903 32.0281 11.2396 29.5179 10.989C27.0077 10.7383 24.5003 10.4877 21.9901 10.2342C20.7308 10.1075 19.4715 9.97231 18.2122 9.85684C17.1702 9.76391 16.3567 10.4539 16.2536 11.5015C16.1032 13.0138 15.9555 14.5262 15.8107 16.0385C15.5627 18.5844 15.3175 21.1331 15.0724 23.6789C14.8244 26.2361 14.5793 28.7932 14.3313 31.3504C14.153 33.1922 13.9803 35.0312 13.7936 36.873C13.7685 37.1349 13.866 37.2166 14.1056 37.2082C14.4009 37.1997 14.699 37.2082 14.9972 37.2082C15.4736 37.2082 15.4931 37.1884 15.5376 36.7153C15.7215 34.7637 15.9054 32.8148 16.0948 30.866C16.4236 27.4724 16.7551 24.0817 17.0811 20.6881C17.2065 19.3645 17.8946 18.4267 19.0842 17.9423C20.7029 17.2805 21.9594 16.2272 22.9345 14.7796C23.5725 13.8334 24.4947 13.3546 25.6453 13.3912C26.0493 13.4053 26.4533 13.4616 26.8572 13.5039C29.9748 13.8277 33.0952 14.1488 36.2127 14.4755C36.6028 14.5149 36.9399 14.6782 37.1683 15.0106C37.4748 15.4555 37.5611 15.9315 37.2853 16.4187C36.9761 16.965 36.4969 17.2213 35.8728 17.1622C34.7807 17.0608 33.6886 16.9481 32.5965 16.8411C30.3036 16.6158 28.0107 16.3877 25.7178 16.1624C25.4057 16.1314 25.1661 16.2413 24.985 16.5144C23.8121 18.314 22.2213 19.601 20.2544 20.4149C19.9758 20.5304 19.8393 20.7134 19.8114 21.0204C19.6582 22.6538 19.4938 24.2844 19.335 25.915C18.9812 29.5255 18.6246 33.1359 18.2707 36.7463C18.2262 37.2025 18.2317 37.2082 18.6719 37.211C20.5803 37.211 22.4916 37.2053 24.4 37.2166C24.7037 37.2194 24.8847 37.1096 25.0519 36.859C26.913 34.0878 28.7852 31.3222 30.6518 28.5567C36.6167 19.7137 42.5732 10.882 48.5297 2.05022C49.1426 1.14058 49.9506 0.504107 50.9898 0.168974C51.0984 0.13518 51.2294 0.126731 51.2879 0ZM43.7684 49.7996C30.2841 49.7996 16.8025 49.7996 3.31815 49.7996C2.73587 49.7996 2.73587 49.7996 2.73587 50.3966C2.73587 61.1969 2.73587 71.9972 2.73587 82.7946C2.73587 82.9045 2.73866 83.0143 2.73866 83.1241C2.73866 83.3128 2.83338 83.3973 3.01448 83.3945C3.12313 83.3945 3.23179 83.3973 3.34044 83.3973C5.55533 83.3973 7.773 83.3945 9.98789 83.4001C10.5925 83.4001 11.0633 83.7494 11.2527 84.3098C11.445 84.8702 11.2945 85.4194 10.8432 85.7968C10.5618 86.0305 10.2331 86.1009 9.87366 86.1009C7.65877 86.0981 5.4411 86.0981 3.22621 86.1009C2.73866 86.1009 2.73309 86.1037 2.73309 86.6078C2.73309 87.7174 2.72194 88.827 2.73587 89.9366C2.7498 91.0265 3.19835 91.9052 4.05088 92.5698C4.69723 93.0739 5.44389 93.2401 6.24905 93.2401C31.1867 93.2373 56.1272 93.2373 81.0649 93.2373C81.2042 93.2373 81.3407 93.2373 81.48 93.2373C83.3578 93.2176 84.8093 91.7531 84.8176 89.8606C84.8232 88.8411 84.8204 87.8216 84.8176 86.7993C84.8176 86.0446 84.8734 86.0981 84.1323 86.0981C62.457 86.0981 40.7846 86.0981 19.1093 86.0981C18.9422 86.0981 18.7722 86.1037 18.6051 86.0925C18.0367 86.0559 17.5659 85.6954 17.3987 85.1772C17.2288 84.6506 17.3903 84.0901 17.8222 83.7156C18.1537 83.4283 18.5521 83.3973 18.9672 83.3973C40.6007 83.4001 62.2369 83.4001 83.8704 83.4001C84.0487 83.4001 84.227 83.4001 84.4053 83.4001C84.787 83.3945 84.8149 83.3692 84.8176 82.9918C84.8204 81.8822 84.8176 80.7726 84.8176 79.663C84.8176 78.8829 84.8121 78.1028 84.8176 77.3227C84.8204 77.0833 84.7285 76.9678 84.4861 76.9819C84.3691 76.9876 84.2493 76.9819 84.1295 76.9819C80.1733 76.9819 76.2144 76.9819 72.2582 76.9819C71.8431 76.9819 71.428 76.9707 71.0129 76.9312C68.1349 76.6496 65.7501 75.3879 63.9754 73.104C61.4986 69.9188 60.9832 66.4041 62.51 62.6135C64.0451 58.8031 67.8173 56.2206 71.8877 56.2206C76.0333 56.2206 80.1789 56.2206 84.3217 56.2206C84.8121 56.2206 84.8149 56.2178 84.8176 55.7165C84.8176 53.9563 84.8176 52.1962 84.8176 50.436C84.8176 49.8024 84.8176 49.8024 84.1824 49.8024C70.7148 49.7996 57.2416 49.7996 43.7684 49.7996ZM43.7851 47.0988C57.1887 47.0988 70.5922 47.0988 83.9958 47.0988C84.1434 47.0988 84.2939 47.0875 84.4415 47.1016C84.7201 47.1241 84.8316 47.0087 84.8288 46.7214C84.8176 45.5808 84.8399 44.4403 84.8204 43.3025C84.8037 42.3731 84.4722 41.5733 83.8063 40.9143C83.1042 40.2215 82.2545 39.9596 81.2961 39.9596C59.632 39.9624 37.9679 39.9624 16.3038 39.9624C12.9104 39.9624 9.51705 39.9596 6.12368 39.9624C4.17903 39.9624 2.74145 41.4128 2.73587 43.3701C2.73309 44.4008 2.73587 45.4288 2.73587 46.4595C2.73587 47.0988 2.73587 47.0988 3.36551 47.0988C16.8387 47.0988 30.3119 47.0988 43.7851 47.0988ZM64.8669 37.1997C65.53 37.1997 66.1931 37.1941 66.8562 37.2025C67.054 37.2053 67.1877 37.1293 67.2991 36.966C68.9791 34.482 70.6619 31.9981 72.3474 29.517C72.5285 29.2495 72.5536 28.9932 72.3976 28.7031C71.3723 26.7909 70.9934 24.7491 71.2219 22.5891C71.2525 22.3046 71.1606 22.0934 70.9182 21.9272C66.2377 18.7139 61.5599 15.495 56.8878 12.2732C56.5925 12.0704 56.3445 12.0817 56.038 12.2394C54.1547 13.211 52.1571 13.5743 50.0537 13.3377C49.7333 13.3011 49.5104 13.3997 49.3293 13.6757C48.5353 14.8726 47.7273 16.0582 46.925 17.2467C42.5593 23.7268 38.1936 30.2042 33.8307 36.6843C33.7638 36.7829 33.6969 36.8815 33.6356 36.9857C33.5688 37.1012 33.5994 37.18 33.7359 37.1941C33.8334 37.2025 33.9337 37.2025 34.0312 37.2025C35.9118 37.2025 37.7896 37.2025 39.6702 37.2025C40.4057 37.2025 40.2719 37.2053 40.3583 36.5801C40.7623 33.6372 42.0856 31.1927 44.3451 29.303C46.6742 27.3541 49.3767 26.4839 52.3995 26.7599C56.0659 27.095 58.8631 28.9087 60.8579 32.0038C61.7912 33.4513 62.3177 35.0566 62.5128 36.7745C62.5573 37.1716 62.5908 37.1997 62.9975 37.2025C63.6188 37.1997 64.2429 37.1997 64.8669 37.1997ZM80.1956 58.9805C77.5155 58.9805 74.8353 58.9524 72.1552 58.9861C68.9763 59.0256 66.5636 60.3915 65.1567 63.3429C63.9921 65.7846 64.137 68.2375 65.4827 70.5187C66.9119 72.9406 69.1379 74.1938 71.9462 74.2079C77.5127 74.2389 83.082 74.2164 88.6484 74.2164C89.2307 74.2164 89.2753 74.1741 89.2753 73.5855C89.2753 68.9275 89.2753 64.2694 89.2753 59.6114C89.2753 59.0228 89.2307 58.9777 88.6512 58.9777C85.8345 58.9777 83.0151 58.9805 80.1956 58.9805ZM71.545 37.1997C71.7818 37.1997 72.0214 37.1913 72.2582 37.2025C72.4561 37.211 72.5898 37.1293 72.7012 36.9632C75.5012 32.781 78.3067 28.6046 81.1011 24.4196C81.7224 23.4903 81.519 22.5637 80.5968 21.9272C77.8665 20.046 75.1362 18.1676 72.4059 16.2863C66.0203 11.8902 59.6376 7.49402 53.252 3.10068C52.3661 2.49237 51.4216 2.67261 50.8254 3.55691C47.3484 8.69937 43.8715 13.8418 40.3945 18.9843C37.5082 23.2509 34.6247 27.5175 31.7384 31.7869C30.5877 33.4879 29.4399 35.1889 28.292 36.8899C28.2391 36.966 28.1305 37.0476 28.1973 37.1518C28.2475 37.2307 28.3617 37.1997 28.4481 37.1997C28.8938 37.2025 29.3396 37.1884 29.7826 37.2053C30.0472 37.2138 30.22 37.1265 30.3704 36.8984C30.8998 36.0901 31.4486 35.2931 31.9891 34.4933C37.0513 27.0077 42.1107 19.5194 47.1729 12.0338C47.8276 11.065 48.7387 10.5975 49.8921 10.6144C50.2375 10.62 50.583 10.6707 50.9285 10.6736C52.3549 10.6876 53.7201 10.4173 54.9849 9.71603C55.5756 9.38934 56.208 9.27106 56.8766 9.35273C57.5592 9.43722 58.1192 9.77799 58.6708 10.161C63.2065 13.3011 67.7393 16.4497 72.2945 19.5644C73.5008 20.3896 74.0497 21.4626 73.8964 22.9214C73.7265 24.5407 74.0469 26.0587 74.8186 27.4893C75.4538 28.6693 75.3953 29.8268 74.6431 30.942C73.9884 31.9165 73.3337 32.8965 72.6817 33.8737C72.0103 34.8763 71.3389 35.8761 70.673 36.8815C70.5086 37.1321 70.5393 37.1884 70.829 37.1969C71.0686 37.2025 71.3054 37.1997 71.545 37.1997ZM51.4383 37.1997C54.06 37.1997 56.6788 37.1997 59.3005 37.1997C59.8465 37.1997 59.8493 37.1941 59.7574 36.6393C59.0079 32.122 55.1549 29.1115 50.6304 29.5114C46.8052 29.8493 43.6542 32.8458 43.0886 36.6787C43.0162 37.1772 43.0329 37.1997 43.5483 37.1997C46.1755 37.1997 48.8083 37.1997 51.4383 37.1997ZM79.0645 37.1997C79.5493 37.1997 80.034 37.1969 80.5188 37.1997C81.0119 37.2025 81.5078 37.2082 82.001 37.2166C82.1458 37.2194 82.2517 37.2025 82.2684 37.0223C82.4105 35.5438 81.4995 34.6679 80.3182 34.6764C79.5075 34.682 78.6967 34.6848 77.886 34.6735C77.6325 34.6707 77.4625 34.7496 77.3205 34.9664C76.9053 35.5973 76.4679 36.2169 76.0444 36.8449C75.9859 36.9294 75.8745 37.0167 75.9442 37.1349C76.0027 37.2335 76.1252 37.1969 76.22 37.1969C77.1672 37.1997 78.1172 37.1997 79.0645 37.1997ZM8.62831 37.1997C9.31088 37.1997 9.99067 37.1913 10.6732 37.2053C10.9491 37.211 11.0661 37.0983 11.0856 36.8308C11.1302 36.245 11.1887 35.6564 11.2444 35.0706C11.2778 34.713 11.2555 34.6848 10.9073 34.682C10.038 34.6792 9.1688 34.6792 8.29956 34.682C6.95391 34.6848 6.21561 35.4565 6.23512 36.8167C6.2379 37.0955 6.32984 37.211 6.61402 37.2053C7.28545 37.1913 7.95688 37.1997 8.62831 37.1997Z" fill="#277DA9"/>
</svg>
